
<svg height="100%" version="1.1" width="100%" xmlns="http://www.w3.org/2000/svg" preserveAspectRatio="xMidYMid meet" viewBox="0 0 600 442" xmlns:xlink="http://www.w3.org/1999/xlink"><desc>Created with Snap</desc><defs/><g id="root">
          <rect class="background" height="2000%" width="2000%" y="-1000%" x="-1000%" style="" fill="#091112"/>
          <rect class="watermarklayer" height="100%" width="100%" y="0" x="0" style="" fill="none"/>
          <g class="content" id="content" transform="matrix(1,0,0,1,60.1,229.5)">
            <g class="icon" style="mask: url(#mask);">
            <svg height="169.4" version="1.1" width="544.4000000000001" xmlns="http://www.w3.org/2000/svg" x="-32.30000000000004" y="-93.2"><desc>Created with Snap</desc><defs/><svg xmlns:xlink="http://www.w3.org/1999/xlink" version="1.1" xmlns="http://www.w3.org/2000/svg" viewBox="0 0 544.4000000000001 169.4"><defs/><g><path fill="none" stroke="#15f6c8" paint-order="fill stroke markers" d=" M 252.20000000000005 12.5 L 531.9000000000001 136.9 L 12.5 156.9 L 252.20000000000005 12.5 M 252.20000000000005 22.5 L 511.9000000000001 131.9 L 32.5 146.9 L 252.20000000000005 22.5 M 292.20000000000005 12.5 L 511.9000000000001 156.9 L 12.5 136.9 L 292.20000000000005 12.5" stroke-linecap="round" stroke-miterlimit="10" stroke-width="2" style=""/></g><desc>Created with Snap</desc></svg></svg></g>
            <g class="name_and_slogan">
              <g class="name"><path d="M5.2 0.8 L5.2 -52.2 L51.9 -52.2 L51.9 -37.2 L38.3 -37.2 L38.3 -41.2 L18.2 -41.2 L18.2 -9.6 L38.7 -9.6 L38.7 -20.6 L27.5 -20.6 L27.5 -29 L52.1 -29 L52.1 0.8 L5.2 0.8 Z M60.6 0.9 L60.6 -38.8 L73.1 -38.8 L73.1 -8.6 L86 -8.6 L86 -38.8 L98.7 -38.8 L98.7 0.9 L60.6 0.9 Z M105.2 0.9 L105.2 -38.8 L146.7 -38.8 L146.7 0.9 L105.2 0.9 Z M133.6 -29.3 L117.6 -29.3 L117.6 -8.2 L133.6 -8.2 L133.6 -29.3 Z M151.2 -52.1 L165.8 -52.1 L177.9 -33.5 L189.5 -52.1 L204.1 -52.1 L184.3 -19.7 L184.3 0.9 L171.3 0.9 L171.3 -19.5 L151.2 -52.1 Z M208.8 0.9 L208.8 -38.8 L221.3 -38.8 L221.3 -8.6 L234.3 -8.6 L234.3 -38.8 L247 -38.8 L247 0.9 L208.8 0.9 Z M297 0.9 L255.8 0.9 L255.8 -52.2 L298.1 -52.2 L298.1 -37.7 L285.4 -37.7 L285.4 -41.6 L269.4 -41.6 L269.4 -9.5 L287 -9.5 L288.3 -13.1 L300.1 -13.1 L297 0.9 Z M310.2 0.9 L310.2 -55.4 L322.9 -55.4 L322.9 -9.2 L331.4 -9.2 L331.4 0.9 L310.2 0.9 Z M339.2 0.9 L339.2 -38.8 L380.7 -38.8 L380.7 0.9 L339.2 0.9 Z M367.6 -29.3 L351.6 -29.3 L351.6 -8.2 L367.6 -8.2 L367.6 -29.3 Z M387.1 0.9 L387.1 -38.8 L399.7 -38.8 L399.7 -8.6 L412.6 -8.6 L412.6 -38.8 L425.3 -38.8 L425.3 0.9 L387.1 0.9 Z M474.6 -55.7 L474.6 0.9 L432.5 0.9 L432.5 -38.7 L462.4 -38.7 L462.4 -55.7 L474.6 -55.7 Z M462.4 -8.5 L462.4 -29.2 L444.6 -29.2 L444.6 -8.5 L462.4 -8.5 Z" style="" fill="#c11e3a" id="namepathdata"/></g>
              <g class="slogan"><path d="M115.1 33.6 L113.2 22.6 L115.4 22.6 L116.8 30.9 L118.9 22.6 L121.4 22.6 L123.3 31 L124.8 22.6 L129.1 22.6 L127.6 33.6 L121.7 33.6 L120.1 27.4 L118.5 33.6 L115.1 33.6 Z M131.5 33.6 L129.6 22.6 L131.7 22.6 L133.2 30.9 L135.3 22.6 L137.8 22.6 L139.7 31 L141.1 22.6 L145.5 22.6 L143.9 33.6 L138.1 33.6 L136.5 27.4 L134.8 33.6 L131.5 33.6 Z M147.8 33.6 L146 22.6 L148.1 22.6 L149.5 30.9 L151.6 22.6 L154.1 22.6 L156 31 L157.5 22.6 L161.8 22.6 L160.3 33.6 L154.5 33.6 L152.8 27.4 L151.2 33.6 L147.8 33.6 Z M166.4 33 L162.9 33 L162.9 29.6 L166.4 29.6 L166.4 33 Z M182.1 22.7 L182.1 35.4 Q182.1 37 181.3 37.9 Q180.5 38.7 178.8 38.7 L168.3 38.7 L168.3 37.2 L177.2 37.2 L177.2 33.1 L168.3 33.1 L168.3 22.7 L182.1 22.7 Z M177.2 31.6 L177.2 24.2 L170.7 24.2 L170.7 31.6 L177.2 31.6 Z M197.9 22.7 L197.9 33.5 L192.9 33.5 L192.9 32.9 Q192.5 33.2 192.1 33.4 Q191.6 33.5 191.1 33.5 L184.4 33.5 L184.4 22.7 L186.9 22.7 L186.9 32.2 L190.4 32.2 Q191.1 32.2 191.8 31.9 Q192.5 31.6 192.9 31 L192.9 22.7 L197.9 22.7 Z M213.7 22.6 L213.7 30.1 Q213.7 30.9 213.4 31.5 Q213.1 32.2 212.7 32.6 Q212.2 33 211.6 33.3 Q211 33.5 210.3 33.5 L200.1 33.5 L200.1 22.6 L213.7 22.6 Z M202.6 24.1 L202.6 31.9 L208.1 31.9 L208.1 24.1 L202.6 24.1 Z M230.1 22.6 L221.2 38.7 L215.9 38.7 L219.9 31.5 L215 22.6 L217.4 22.6 L221.2 29.2 L224.8 22.6 L230.1 22.6 Z M245 22.7 L245 33.5 L240 33.5 L240 32.9 Q239.6 33.2 239.1 33.4 Q238.7 33.5 238.2 33.5 L231.4 33.5 L231.4 22.7 L234 22.7 L234 32.2 L237.5 32.2 Q238.2 32.2 238.9 31.9 Q239.6 31.6 240 31 L240 22.7 L245 22.7 Z M252.2 32 L258.8 32 L258.8 33.5 L247.2 33.5 L247.2 22.7 L258.8 22.7 L258.8 24.2 L252.2 24.2 L252.2 32 Z M266.1 16.8 L266.1 33.5 L261.1 33.5 L261.1 16.8 L266.1 16.8 Z M281.8 22.6 L281.8 30.1 Q281.8 30.9 281.5 31.5 Q281.3 32.2 280.8 32.6 Q280.4 33 279.8 33.3 Q279.1 33.5 278.5 33.5 L268.3 33.5 L268.3 22.6 L281.8 22.6 Z M270.7 24.1 L270.7 31.9 L276.3 31.9 L276.3 24.1 L270.7 24.1 Z M297.6 22.7 L297.6 33.5 L292.6 33.5 L292.6 32.9 Q292.2 33.2 291.8 33.4 Q291.3 33.5 290.8 33.5 L284.1 33.5 L284.1 22.7 L286.6 22.7 L286.6 32.2 L290.1 32.2 Q290.8 32.2 291.5 31.9 Q292.2 31.6 292.6 31 L292.6 22.7 L297.6 22.7 Z M313.1 16.7 L313.1 33.5 L302.2 33.5 Q301.1 33.5 300.4 33.1 Q299.8 32.6 299.8 31.4 L299.8 22.6 L308.2 22.6 L308.2 16.7 L313.1 16.7 Z M308.2 32 L308.2 24.1 L302.3 24.1 L302.3 32 L308.2 32 Z M318.5 33 L315 33 L315 29.6 L318.5 29.6 L318.5 33 Z M325.4 32 L332 32 L332 33.5 L320.4 33.5 L320.4 22.7 L332 22.7 L332 24.2 L325.4 24.2 L325.4 32 Z M347.7 22.6 L347.7 30.1 Q347.7 30.9 347.5 31.5 Q347.2 32.2 346.7 32.6 Q346.3 33 345.7 33.3 Q345.1 33.5 344.4 33.5 L334.2 33.5 L334.2 22.6 L347.7 22.6 Z M336.7 24.1 L336.7 31.9 L342.2 31.9 L342.2 24.1 L336.7 24.1 Z M358.2 24.1 L358.2 33.5 L355.7 33.5 L355.7 24.1 L352.5 24.1 L352.5 33.5 L350 33.5 L350 22.5 L366.3 22.5 L366.3 33.5 L361.3 33.5 L361.3 24.1 L358.2 24.1 Z" style="" fill="#c11e3a" id="sloganpathdata"/></g>
            </g>
            <g class="border">
            </g>
          </g>
          <defs id="defs">
            <mask xmlns="http://www.w3.org/2000/svg" id="mask">
                <rect id="showAll" fill="white" x="-32.30000000000004" y="-93.2" width="544.4000000000001" height="169.4"/>
                <rect id="hideNameBg" fill="black" x="0" y="0" width="0" height="0" stroke-width="2" stroke="black"/>
                <rect id="hideSloganBg" fill="black" x="0" y="0" width="0" height="0" stroke-width="2" stroke="black"/>
            <path d="M5.2 0.8 L5.2 -52.2 L51.9 -52.2 L51.9 -37.2 L38.3 -37.2 L38.3 -41.2 L18.2 -41.2 L18.2 -9.6 L38.7 -9.6 L38.7 -20.6 L27.5 -20.6 L27.5 -29 L52.1 -29 L52.1 0.8 L5.2 0.8 Z M60.6 0.9 L60.6 -38.8 L73.1 -38.8 L73.1 -8.6 L86 -8.6 L86 -38.8 L98.7 -38.8 L98.7 0.9 L60.6 0.9 Z M105.2 0.9 L105.2 -38.8 L146.7 -38.8 L146.7 0.9 L105.2 0.9 Z M133.6 -29.3 L117.6 -29.3 L117.6 -8.2 L133.6 -8.2 L133.6 -29.3 Z M151.2 -52.1 L165.8 -52.1 L177.9 -33.5 L189.5 -52.1 L204.1 -52.1 L184.3 -19.7 L184.3 0.9 L171.3 0.9 L171.3 -19.5 L151.2 -52.1 Z M208.8 0.9 L208.8 -38.8 L221.3 -38.8 L221.3 -8.6 L234.3 -8.6 L234.3 -38.8 L247 -38.8 L247 0.9 L208.8 0.9 Z M297 0.9 L255.8 0.9 L255.8 -52.2 L298.1 -52.2 L298.1 -37.7 L285.4 -37.7 L285.4 -41.6 L269.4 -41.6 L269.4 -9.5 L287 -9.5 L288.3 -13.1 L300.1 -13.1 L297 0.9 Z M310.2 0.9 L310.2 -55.4 L322.9 -55.4 L322.9 -9.2 L331.4 -9.2 L331.4 0.9 L310.2 0.9 Z M339.2 0.9 L339.2 -38.8 L380.7 -38.8 L380.7 0.9 L339.2 0.9 Z M367.6 -29.3 L351.6 -29.3 L351.6 -8.2 L367.6 -8.2 L367.6 -29.3 Z M387.1 0.9 L387.1 -38.8 L399.7 -38.8 L399.7 -8.6 L412.6 -8.6 L412.6 -38.8 L425.3 -38.8 L425.3 0.9 L387.1 0.9 Z M474.6 -55.7 L474.6 0.9 L432.5 0.9 L432.5 -38.7 L462.4 -38.7 L462.4 -55.7 L474.6 -55.7 Z M462.4 -8.5 L462.4 -29.2 L444.6 -29.2 L444.6 -8.5 L462.4 -8.5 Z" style="stroke-width: 5;" fill="#000000" id="masknamepathdata" stroke="#000000" transform="matrix(1,0,0,1,0,0)"/><path d="M115.1 33.6 L113.2 22.6 L115.4 22.6 L116.8 30.9 L118.9 22.6 L121.4 22.6 L123.3 31 L124.8 22.6 L129.1 22.6 L127.6 33.6 L121.7 33.6 L120.1 27.4 L118.5 33.6 L115.1 33.6 Z M131.5 33.6 L129.6 22.6 L131.7 22.6 L133.2 30.9 L135.3 22.6 L137.8 22.6 L139.7 31 L141.1 22.6 L145.5 22.6 L143.9 33.6 L138.1 33.6 L136.5 27.4 L134.8 33.6 L131.5 33.6 Z M147.8 33.6 L146 22.6 L148.1 22.6 L149.5 30.9 L151.6 22.6 L154.1 22.6 L156 31 L157.5 22.6 L161.8 22.6 L160.3 33.6 L154.5 33.6 L152.8 27.4 L151.2 33.6 L147.8 33.6 Z M166.4 33 L162.9 33 L162.9 29.6 L166.4 29.6 L166.4 33 Z M182.1 22.7 L182.1 35.4 Q182.1 37 181.3 37.9 Q180.5 38.7 178.8 38.7 L168.3 38.7 L168.3 37.2 L177.2 37.2 L177.2 33.1 L168.3 33.1 L168.3 22.7 L182.1 22.7 Z M177.2 31.6 L177.2 24.2 L170.7 24.2 L170.7 31.6 L177.2 31.6 Z M197.9 22.7 L197.9 33.5 L192.9 33.5 L192.9 32.9 Q192.5 33.2 192.1 33.4 Q191.6 33.5 191.1 33.5 L184.4 33.5 L184.4 22.7 L186.9 22.7 L186.9 32.2 L190.4 32.2 Q191.1 32.2 191.8 31.9 Q192.5 31.6 192.9 31 L192.9 22.7 L197.9 22.7 Z M213.7 22.6 L213.7 30.1 Q213.7 30.9 213.4 31.5 Q213.1 32.2 212.7 32.6 Q212.2 33 211.6 33.3 Q211 33.5 210.3 33.5 L200.1 33.5 L200.1 22.6 L213.7 22.6 Z M202.6 24.1 L202.6 31.9 L208.1 31.9 L208.1 24.1 L202.6 24.1 Z M230.1 22.6 L221.2 38.7 L215.9 38.7 L219.9 31.5 L215 22.6 L217.4 22.6 L221.2 29.2 L224.8 22.6 L230.1 22.6 Z M245 22.7 L245 33.5 L240 33.5 L240 32.9 Q239.6 33.2 239.1 33.4 Q238.7 33.5 238.2 33.5 L231.4 33.5 L231.4 22.7 L234 22.7 L234 32.2 L237.5 32.2 Q238.2 32.2 238.9 31.9 Q239.6 31.6 240 31 L240 22.7 L245 22.7 Z M252.2 32 L258.8 32 L258.8 33.5 L247.2 33.5 L247.2 22.7 L258.8 22.7 L258.8 24.2 L252.2 24.2 L252.2 32 Z M266.1 16.8 L266.1 33.5 L261.1 33.5 L261.1 16.8 L266.1 16.8 Z M281.8 22.6 L281.8 30.1 Q281.8 30.9 281.5 31.5 Q281.3 32.2 280.8 32.6 Q280.4 33 279.8 33.3 Q279.1 33.5 278.5 33.5 L268.3 33.5 L268.3 22.6 L281.8 22.6 Z M270.7 24.1 L270.7 31.9 L276.3 31.9 L276.3 24.1 L270.7 24.1 Z M297.6 22.7 L297.6 33.5 L292.6 33.5 L292.6 32.9 Q292.2 33.2 291.8 33.4 Q291.3 33.5 290.8 33.5 L284.1 33.5 L284.1 22.7 L286.6 22.7 L286.6 32.2 L290.1 32.2 Q290.8 32.2 291.5 31.9 Q292.2 31.6 292.6 31 L292.6 22.7 L297.6 22.7 Z M313.1 16.7 L313.1 33.5 L302.2 33.5 Q301.1 33.5 300.4 33.1 Q299.8 32.6 299.8 31.4 L299.8 22.6 L308.2 22.6 L308.2 16.7 L313.1 16.7 Z M308.2 32 L308.2 24.1 L302.3 24.1 L302.3 32 L308.2 32 Z M318.5 33 L315 33 L315 29.6 L318.5 29.6 L318.5 33 Z M325.4 32 L332 32 L332 33.5 L320.4 33.5 L320.4 22.7 L332 22.7 L332 24.2 L325.4 24.2 L325.4 32 Z M347.7 22.6 L347.7 30.1 Q347.7 30.9 347.5 31.5 Q347.2 32.2 346.7 32.6 Q346.3 33 345.7 33.3 Q345.1 33.5 344.4 33.5 L334.2 33.5 L334.2 22.6 L347.7 22.6 Z M336.7 24.1 L336.7 31.9 L342.2 31.9 L342.2 24.1 L336.7 24.1 Z M358.2 24.1 L358.2 33.5 L355.7 33.5 L355.7 24.1 L352.5 24.1 L352.5 33.5 L350 33.5 L350 22.5 L366.3 22.5 L366.3 33.5 L361.3 33.5 L361.3 24.1 L358.2 24.1 Z" style="stroke-width: 5;" fill="#000000" id="masksloganpathdata" stroke="#000000" transform="matrix(1,0,0,1,0,0)"/></mask>
          
          </defs>
        </g>
        </svg>