<svg
   xmlns:dc="http://purl.org/dc/elements/1.1/"
   xmlns:cc="http://creativecommons.org/ns#"
   xmlns:rdf="http://www.w3.org/1999/02/22-rdf-syntax-ns#"
   xmlns:svg="http://www.w3.org/2000/svg"
   xmlns="http://www.w3.org/2000/svg"
   id="svg76"
   version="1.1"
   viewBox="0 0 380 280">
  <metadata
     id="metadata82">
    <rdf:RDF>
      <cc:Work
         rdf:about="">
        <dc:format>image/svg+xml</dc:format>
        <dc:type
           rdf:resource="http://purl.org/dc/dcmitype/StillImage" />
      </cc:Work>
    </rdf:RDF>
  </metadata>
  <defs
     id="defs80" />
  <svg
     height="100%"
     width="100%"
     id="svg7"
     version="1.1"
     viewBox="0 0 380 280">
    <linearGradient
       y2="1"
       x2="0"
       y1="0"
       x1="1"
       id="icon_color_gradient">
      <stop
         id="stop2"
         stop-opacity="1"
         stop-color="#191E78"
         offset="0%" />
      <stop
         id="stop4"
         stop-opacity="1"
         stop-color="#2DD5FF"
         offset="100%" />
    </linearGradient>
  </svg>
  <svg
     id="svg15"
     version="1.1"
     height="64"
     width="64"
     y="108"
     x="44.5625">
    <g
       style="fill:url(#icon_color_gradient)"
       id="g13">
      <svg
         height="100%"
         width="100%"
         id="svg11"
         version="1.1"
         viewBox="0 0 36 36">
        <path
           style="fill-rule:evenodd;stroke:none"
           id="path9"
           d="M 15.667,0.667 C 15.3,1.033 15,3.283 15,5.667 15,9.622 14.782,10 12.5,10 10.5,10 10,10.5 10,12.5 10,14.791 9.629,15 5.567,15 2.02,15 1.009,15.397 0.503,16.991 -0.47,20.055 0.722,21 5.559,21 9.629,21 10,21.209 10,23.5 c 0,2 0.5,2.5 2.5,2.5 2.287,0 2.5,0.374 2.5,4.393 0,4.536 1.451,6.139 4.5,4.969 C 20.518,34.971 21,33.375 21,30.393 21,26.374 21.213,26 23.5,26 25.5,26 26,25.5 26,23.5 26,21.243 26.395,21 30.071,21 33.925,21 37,19.304 37,17.178 37,15.792 34.424,15 29.918,15 26.434,15 26,14.73 26,12.566 26,10.655 25.41,10.065 23.25,9.816 20.791,9.534 20.529,9.142 20.77,6.127 21.138,1.542 18.072,-1.739 15.667,0.667 M 13,18 v 5 h 5 5 v -5 -5 h -5 -5 v 5 M 0.079,18.583 c 0.048,1.165 0.285,1.402 0.604,0.605 0.289,-0.722 0.253,-1.585 -0.079,-1.917 -0.332,-0.332 -0.568,0.258 -0.525,1.312" />
      </svg>
    </g>
  </svg>
  <g
     transform="translate(225,131.375)"
     id="container">
    <g
       id="text17"
       style="font-size:40px;font-family:'IdeaFonts JianSong';fill:#2d5999;fill-opacity:1"
       aria-label="G">
      <path
         id="path84"
         style="font-size:40px;font-family:'IdeaFonts JianSong';fill:#2d5999;fill-opacity:1"
         d="m -109.4775,1.5675 q 0,-0.96 0.04,-1.44 -0.08,-3.12 0.72,-5.96 0.84,-2.84 2.64,-5.04 1.56,-1.88 3.76,-2.96 2.2,-1.08 4.6,-1.08 2.92,0 5.4,1.44 0.16,0.08 0.6,0.4 0.48,0.28 0.88,0.28 0.28,0 0.4,-0.08 0.28,-0.16 0.4,-0.72 0.16,-0.6 0.12,-1.24 h 1.96 v 9.96 h -1.76 q -0.32,-1.24 -0.84,-2.36 -0.52,-1.16 -0.96,-1.72 -0.88,-1.08 -2.12,-1.72 -1.2,-0.68 -2.48,-0.68 -1.08,0 -2.08,0.52 -1.84,1.12 -2.76,4.08 -0.88,3.32 -0.88,7.8 0,2.32 0.4,4.48 0.4,2.12 1.2,3.48 0.64,1.04 1.68,1.64 1.08,0.6 2.24,0.6 1.28,0 2.24,-0.88 0.96,-0.88 0.96,-2.16 v -3.64 h -2.44 v -2.88 h 11.88 v 2.88 h -2.72 v 10.4 h -1.84 q 0,-1.32 -0.76,-2.2 -0.68,-0.76 -1.4,-0.76 -0.88,0 -1.76,0.8 -2.36,2.2 -6.32,2.2 -2.56,0 -4.72,-1.04 -2.12,-1.04 -3.52,-3 -2.76,-3.56 -2.76,-9.4 z" />
    </g>
    <g
       id="text19"
       style="font-size:40px;font-family:'IdeaFonts JianSong';fill:#2d5999;fill-opacity:1"
       aria-label="u">
      <path
         id="path87"
         style="font-size:40px;font-family:'IdeaFonts JianSong';fill:#2d5999;fill-opacity:1"
         d="m -69.2175,8.3275 -0.04,-10.36 h -1.84 v -1.88 l 6.72,-1.52 h 1.76 v 17.16 h 1.92 v 2.96 h -8.56 v -2.32 q -1.2,1.16 -2.64,1.76 -1.4,0.6 -2.72,0.6 -2.52,0 -3.8,-1.24 -0.56,-0.6 -0.88,-1.52 -0.28,-0.92 -0.28,-1.84 l -0.04,-12.16 h -1.72 l 0.04,-1.88 6.36,-1.52 h 1.76 v 13.2 q 0,1.28 0.4,1.84 0.4,0.56 1.2,0.56 0.6,0 1.24,-0.48 0.64,-0.52 1.12,-1.36 z" />
    </g>
    <g
       id="text21"
       style="font-size:40px;font-family:'IdeaFonts JianSong';fill:#2d5999;fill-opacity:1"
       aria-label="o">
      <path
         id="path90"
         style="font-size:40px;font-family:'IdeaFonts JianSong';fill:#2d5999;fill-opacity:1"
         d="m -41.5675,5.0075 q 0,4.76 -2.36,7.44 -2.36,2.64 -6.48,2.64 -2.52,0 -4.52,-1.2 -1.96,-1.2 -3.12,-3.48 -1.12,-2.28 -1.12,-5.4 0,-2.96 1.12,-5.24 1.16,-2.28 3.16,-3.52 2,-1.28 4.48,-1.28 2.68,0 4.68,1.24 2,1.24 3.08,3.52 1.08,2.28 1.08,5.28 z m -8.88,-7.36 q -2.2,0 -2.2,7.2 0,4.08 0.6,5.64 0.6,1.52 1.6,1.52 1.12,0 1.72,-1.52 0.64,-1.52 0.64,-5.64 0,-4.04 -0.64,-5.6 -0.64,-1.6 -1.72,-1.6 z" />
    </g>
    <g
       id="text23"
       style="font-size:40px;font-family:'IdeaFonts JianSong';fill:#2d5999;fill-opacity:1"
       aria-label="Y">
      <path
         id="path93"
         style="font-size:40px;font-family:'IdeaFonts JianSong';fill:#2d5999;fill-opacity:1"
         d="m -39.6825,-14.7925 h 12.76 v 3 h -2.2 l 3.92,10.12 5,-10.12 h -3.04 v -3 h 9.24 v 3 h -2.92 l -6.48,12.8 v 10.72 h 3.8 v 2.92 h -14.88 v -2.92 h 3.68 v -9.24 l -5.6,-14.28 h -3.28 z" />
    </g>
    <g
       id="text25"
       style="font-size:40px;font-family:'IdeaFonts JianSong';fill:#2d5999;fill-opacity:1"
       aria-label="u">
      <path
         id="path96"
         style="font-size:40px;font-family:'IdeaFonts JianSong';fill:#2d5999;fill-opacity:1"
         d="m 0.6575,8.3275 -0.04,-10.36 h -1.84 v -1.88 l 6.72,-1.52 h 1.76 v 17.16 h 1.92 v 2.96 h -8.56 v -2.32 q -1.2,1.16 -2.64,1.76 -1.4,0.6 -2.72,0.6 -2.52,0 -3.8,-1.24 -0.56,-0.6 -0.88,-1.52 -0.28,-0.92 -0.28,-1.84 l -0.04,-12.16 h -1.72 l 0.04,-1.88 6.36,-1.52 h 1.76 v 13.2 q 0,1.28 0.4,1.84 0.4,0.56 1.2,0.56 0.6,0 1.24,-0.48 0.64,-0.52 1.12,-1.36 z" />
    </g>
    <g
       id="text27"
       style="font-size:40px;font-family:'IdeaFonts JianSong';fill:#2d5999;fill-opacity:1"
       aria-label="C">
      <path
         id="path99"
         style="font-size:40px;font-family:'IdeaFonts JianSong';fill:#2d5999;fill-opacity:1"
         d="m 33.1475,-4.9525 h -1.92 q -0.6,-3.56 -2.56,-5.52 -1.88,-1.88 -4.32,-1.76 -1.36,0.2 -2.48,1.16 -1.08,0.96 -1.64,2.28 -1.28,3 -1.28,7.84 0,5.64 1.52,9.4 0.64,1.52 1.64,2.48 1.04,0.92 2.72,0.92 2.12,0 3.92,-1.6 1.8,-1.6 2.64,-4.36 l 2.12,0.36 q -1.16,4.6 -3.76,6.68 -2.56,2.04 -6.88,2.04 -2.76,0 -5.36,-1.36 -2.6,-1.36 -3.96,-3.72 -2.36,-4.08 -2.36,-9.72 0,-1 0.16,-2.92 0.2,-2.4 1.08,-4.6 0.88,-2.24 2.36,-4 1.64,-1.64 3.68,-2.64 2.04,-1 4.2,-1 1.64,-0.08 3.2,0.32 1.6,0.36 2.92,1.2 0.64,0.48 1.12,0.48 0.24,0 0.4,-0.12 0.2,-0.16 0.32,-0.76 0.16,-0.64 0.16,-1.12 h 1.88 z" />
    </g>
    <g
       id="text29"
       style="font-size:40px;font-family:'IdeaFonts JianSong';fill:#2d5999;fill-opacity:1"
       aria-label="l">
      <path
         id="path102"
         style="font-size:40px;font-family:'IdeaFonts JianSong';fill:#2d5999;fill-opacity:1"
         d="m 36.5625,11.7275 h 2.6 l -0.04,-23 h -2.56 v -2 l 7.24,-1.56 h 2.08 v 26.56 h 2.48 v 2.96 h -11.8 z" />
    </g>
    <g
       id="text31"
       style="font-size:40px;font-family:'IdeaFonts JianSong';fill:#2d5999;fill-opacity:1"
       aria-label="o">
      <path
         id="path105"
         style="font-size:40px;font-family:'IdeaFonts JianSong';fill:#2d5999;fill-opacity:1"
         d="m 68.4325,5.0075 q 0,4.76 -2.36,7.44 -2.36,2.64 -6.48,2.64 -2.52,0 -4.52,-1.2 -1.96,-1.2 -3.12,-3.48 -1.12,-2.28 -1.12,-5.4 0,-2.96 1.12,-5.24 1.16,-2.28 3.16,-3.52 2,-1.28 4.48,-1.28 2.68,0 4.68,1.24 2,1.24 3.08,3.52 1.08,2.28 1.08,5.28 z m -8.88,-7.36 q -2.2,0 -2.2,7.2 0,4.08 0.6,5.64 0.6,1.52 1.6,1.52 1.12,0 1.72,-1.52 0.64,-1.52 0.64,-5.64 0,-4.04 -0.64,-5.6 -0.64,-1.6 -1.72,-1.6 z" />
    </g>
    <g
       id="text33"
       style="font-size:40px;font-family:'IdeaFonts JianSong';fill:#2d5999;fill-opacity:1"
       aria-label="u">
      <path
         id="path108"
         style="font-size:40px;font-family:'IdeaFonts JianSong';fill:#2d5999;fill-opacity:1"
         d="m 82.1575,8.3275 -0.04,-10.36 h -1.84 v -1.88 l 6.72,-1.52 h 1.76 v 17.16 h 1.92 v 2.96 h -8.56 v -2.32 q -1.2,1.16 -2.64,1.76 -1.4,0.6 -2.72,0.6 -2.52,0 -3.8,-1.24 -0.56,-0.6 -0.88,-1.52 -0.28,-0.92 -0.28,-1.84 l -0.04,-12.16 h -1.72 l 0.04,-1.88 6.36,-1.52 h 1.76 v 13.2 q 0,1.28 0.4,1.84 0.4,0.56 1.2,0.56 0.6,0 1.24,-0.48 0.64,-0.52 1.12,-1.36 z" />
    </g>
    <g
       id="text35"
       style="font-size:40px;font-family:'IdeaFonts JianSong';fill:#2d5999;fill-opacity:1"
       aria-label="d">
      <path
         id="path111"
         style="font-size:40px;font-family:'IdeaFonts JianSong';fill:#2d5999;fill-opacity:1"
         d="m 98.6875,-4.9925 q 1,0 2.12,0.44 1.16,0.4 1.92,1.16 v -8.4 h -2.48 v -1.92 l 7.56,-1.36 h 1.76 v 29.76 h -2.44 l -4.16,-1.96 q -0.64,0.8 -1.84,1.36 -1.2,0.52 -2.28,0.52 -1.68,0 -3.08,-0.92 -1.36,-0.92 -2.08,-2.44 -1.12,-2.8 -1.12,-6.32 0,-1.76 0.24,-3.48 0.4,-2.88 1.96,-4.6 0.72,-0.84 1.76,-1.32 1.04,-0.52 2.16,-0.52 z m 1.96,3.76 q -0.28,0 -0.56,0.16 -0.24,0.16 -0.4,0.44 -1.08,2 -1.08,5.52 0,3.08 0.84,4.84 0.16,0.4 0.44,0.64 0.32,0.2 0.64,0.2 0.76,0 1.28,-0.92 0.92,-1.52 0.92,-5 0,-1.48 -0.28,-2.96 -0.28,-1.48 -0.72,-2.32 -0.44,-0.6 -1.08,-0.6 z" />
    </g>
    <g
       id="text37"
       style="font-size:12px;font-family:'Heiti SC';fill:#30b4de;fill-opacity:1"
       aria-label="w">
      <path
         id="path114"
         style="font-size:12px;font-family:'Heiti SC';fill:#30b4de;fill-opacity:1"
         d="m -80.10825,23.783 h 0.852 l 1.944,4.836 2.052,-4.836 h 0.144 l 2.04,4.836 1.98,-4.836 h 0.864 l -2.772,6.588 h -0.156 l -2.028,-4.776 -2.04,4.776 h -0.156 z" />
    </g>
    <g
       id="text39"
       style="font-size:12px;font-family:'Heiti SC';fill:#30b4de;fill-opacity:1"
       aria-label="w">
      <path
         id="path117"
         style="font-size:12px;font-family:'Heiti SC';fill:#30b4de;fill-opacity:1"
         d="m -69.17075,23.783 h 0.852 l 1.944,4.836 2.052,-4.836 h 0.144 l 2.04,4.836 1.98,-4.836 h 0.864 l -2.772,6.588 h -0.156 l -2.028,-4.776 -2.04,4.776 h -0.156 z" />
    </g>
    <g
       id="text41"
       style="font-size:12px;font-family:'Heiti SC';fill:#30b4de;fill-opacity:1"
       aria-label="w">
      <path
         id="path120"
         style="font-size:12px;font-family:'Heiti SC';fill:#30b4de;fill-opacity:1"
         d="m -58.23325,23.783 h 0.852 l 1.944,4.836 2.052,-4.836 h 0.144 l 2.04,4.836 1.98,-4.836 h 0.864 l -2.772,6.588 h -0.156 l -2.028,-4.776 -2.04,4.776 h -0.156 z" />
    </g>
    <g
       id="text43"
       style="font-size:12px;font-family:'Heiti SC';fill:#30b4de;fill-opacity:1"
       aria-label=".">
      <path
         id="path123"
         style="font-size:12px;font-family:'Heiti SC';fill:#30b4de;fill-opacity:1"
         d="m -46.25175,29.591 q 0,-0.3 0.216,-0.504 0.216,-0.216 0.504,-0.216 0.3,0 0.504,0.216 0.216,0.204 0.216,0.516 0,0.3 -0.216,0.516 -0.204,0.204 -0.504,0.204 -0.288,0 -0.504,-0.216 -0.216,-0.216 -0.216,-0.516 z" />
    </g>
    <g
       id="text45"
       style="font-size:12px;font-family:'Heiti SC';fill:#30b4de;fill-opacity:1"
       aria-label="g">
      <path
         id="path126"
         style="font-size:12px;font-family:'Heiti SC';fill:#30b4de;fill-opacity:1"
         d="m -36.28925,23.783 h 0.828 v 4.92 q 0,1.308 -0.228,1.92 -0.228,0.612 -0.66,1.02 -0.432,0.408 -1.044,0.624 -0.612,0.216 -1.344,0.216 -2.496,0 -3.288,-1.992 h 0.888 q 0.696,1.248 2.364,1.248 0.804,0 1.392,-0.312 0.6,-0.312 0.84,-0.792 0.252,-0.492 0.252,-1.524 v -0.276 q -0.492,0.612 -1.164,0.912 -0.672,0.3 -1.416,0.3 -1.392,0 -2.316,-0.948 -0.924,-0.948 -0.924,-2.232 0,-1.332 0.984,-2.292 0.984,-0.96 2.376,-0.96 1.404,0 2.46,1.272 z m 0.036,3.084 q 0,-1.044 -0.708,-1.752 -0.708,-0.708 -1.752,-0.708 -1.104,0 -1.836,0.768 -0.732,0.756 -0.732,1.74 0,0.984 0.708,1.68 0.708,0.684 1.812,0.684 1.104,0 1.8,-0.672 0.708,-0.672 0.708,-1.74 z" />
    </g>
    <g
       id="text47"
       style="font-size:12px;font-family:'Heiti SC';fill:#30b4de;fill-opacity:1"
       aria-label="u">
      <path
         id="path129"
         style="font-size:12px;font-family:'Heiti SC';fill:#30b4de;fill-opacity:1"
         d="m -27.33475,30.155 h -0.828 v -1.14 q -0.984,1.308 -2.388,1.308 -0.72,0 -1.296,-0.384 -0.576,-0.396 -0.816,-1.02 -0.24,-0.636 -0.24,-1.86 v -3.276 h 0.816 v 3.036 q 0,1.116 0.096,1.512 0.108,0.396 0.312,0.672 0.216,0.276 0.54,0.42 0.324,0.144 0.78,0.144 0.468,0 0.912,-0.228 0.444,-0.228 0.756,-0.636 0.312,-0.408 0.42,-0.84 0.108,-0.432 0.108,-1.74 v -2.34 h 0.828 z" />
    </g>
    <g
       id="text49"
       style="font-size:12px;font-family:'Heiti SC';fill:#30b4de;fill-opacity:1"
       aria-label="o">
      <path
         id="path132"
         style="font-size:12px;font-family:'Heiti SC';fill:#30b4de;fill-opacity:1"
         d="m -24.79425,27.011 q 0,-1.404 0.96,-2.4 0.972,-0.996 2.352,-0.996 1.392,0 2.352,0.996 0.972,0.996 0.972,2.388 0,1.392 -0.96,2.388 -0.948,0.984 -2.352,0.984 -1.404,0 -2.364,-0.984 -0.96,-0.996 -0.96,-2.376 z m 5.808,0.012 q 0,-1.056 -0.744,-1.824 -0.732,-0.78 -1.752,-0.78 -1.008,0 -1.74,0.78 -0.732,0.768 -0.732,1.836 0,1.068 0.708,1.812 0.708,0.744 1.752,0.744 1.056,0 1.776,-0.744 0.732,-0.756 0.732,-1.824 z" />
    </g>
    <g
       id="text51"
       style="font-size:12px;font-family:'Heiti SC';fill:#30b4de;fill-opacity:1"
       aria-label="o">
      <path
         id="path135"
         style="font-size:12px;font-family:'Heiti SC';fill:#30b4de;fill-opacity:1"
         d="m -15.91925,27.011 q 0,-1.404 0.96,-2.4 0.972,-0.996 2.352,-0.996 1.392,0 2.352,0.996 0.972,0.996 0.972,2.388 0,1.392 -0.96,2.388 -0.948,0.984 -2.352,0.984 -1.404,0 -2.364,-0.984 -0.96,-0.996 -0.96,-2.376 z m 5.808,0.012 q 0,-1.056 -0.744,-1.824 -0.732,-0.78 -1.752,-0.78 -1.008,0 -1.74,0.78 -0.732,0.768 -0.732,1.836 0,1.068 0.708,1.812 0.708,0.744 1.752,0.744 1.056,0 1.776,-0.744 0.732,-0.756 0.732,-1.824 z" />
    </g>
    <g
       id="text53"
       style="font-size:12px;font-family:'Heiti SC';fill:#30b4de;fill-opacity:1"
       aria-label="y">
      <path
         id="path138"
         style="font-size:12px;font-family:'Heiti SC';fill:#30b4de;fill-opacity:1"
         d="m -7.42825,23.783 h 0.864 l 2.196,4.908 2.124,-4.908 h 0.876 l -3.804,8.7 h -0.864 l 1.224,-2.808 z" />
    </g>
    <g
       id="text55"
       style="font-size:12px;font-family:'Heiti SC';fill:#30b4de;fill-opacity:1"
       aria-label="u">
      <path
         id="path141"
         style="font-size:12px;font-family:'Heiti SC';fill:#30b4de;fill-opacity:1"
         d="m 6.29025,30.155 h -0.828 v -1.14 q -0.984,1.308 -2.388,1.308 -0.72,0 -1.296,-0.384 -0.576,-0.396 -0.816,-1.02 -0.24,-0.636 -0.24,-1.86 v -3.276 h 0.816 v 3.036 q 0,1.116 0.096,1.512 0.108,0.396 0.312,0.672 0.216,0.276 0.54,0.42 0.324,0.144 0.78,0.144 0.468,0 0.912,-0.228 0.444,-0.228 0.756,-0.636 0.312,-0.408 0.42,-0.84 0.108,-0.432 0.108,-1.74 v -2.34 h 0.828 z" />
    </g>
    <g
       id="text57"
       style="font-size:12px;font-family:'Heiti SC';fill:#30b4de;fill-opacity:1"
       aria-label="c">
      <path
         id="path144"
         style="font-size:12px;font-family:'Heiti SC';fill:#30b4de;fill-opacity:1"
         d="m 15.35875,25.103 -0.648,0.408 q -0.84,-1.116 -2.304,-1.116 -1.152,0 -1.932,0.744 -0.78,0.732 -0.78,1.824 0,1.092 0.768,1.872 0.768,0.78 1.944,0.78 1.404,0 2.304,-1.116 l 0.648,0.432 q -0.48,0.696 -1.296,1.068 -0.804,0.372 -1.74,0.372 -1.476,0 -2.472,-0.972 -0.984,-0.972 -0.984,-2.376 0,-1.404 0.996,-2.4 1.008,-1.008 2.58,-1.008 0.924,0 1.704,0.396 0.792,0.396 1.212,1.092 z" />
    </g>
    <g
       id="text59"
       style="font-size:12px;font-family:'Heiti SC';fill:#30b4de;fill-opacity:1"
       aria-label="l">
      <path
         id="path147"
         style="font-size:12px;font-family:'Heiti SC';fill:#30b4de;fill-opacity:1"
         d="m 17.88575,21.323 h 0.816 v 8.832 h -0.816 z" />
    </g>
    <g
       id="text61"
       style="font-size:12px;font-family:'Heiti SC';fill:#30b4de;fill-opacity:1"
       aria-label="o">
      <path
         id="path150"
         style="font-size:12px;font-family:'Heiti SC';fill:#30b4de;fill-opacity:1"
         d="m 21.14325,27.011 q 0,-1.404 0.96,-2.4 0.972,-0.996 2.352,-0.996 1.392,0 2.352,0.996 0.972,0.996 0.972,2.388 0,1.392 -0.96,2.388 -0.948,0.984 -2.352,0.984 -1.404,0 -2.364,-0.984 -0.96,-0.996 -0.96,-2.376 z m 5.808,0.012 q 0,-1.056 -0.744,-1.824 -0.732,-0.78 -1.752,-0.78 -1.008,0 -1.74,0.78 -0.732,0.768 -0.732,1.836 0,1.068 0.708,1.812 0.708,0.744 1.752,0.744 1.056,0 1.776,-0.744 0.732,-0.756 0.732,-1.824 z" />
    </g>
    <g
       id="text63"
       style="font-size:12px;font-family:'Heiti SC';fill:#30b4de;fill-opacity:1"
       aria-label="u">
      <path
         id="path153"
         style="font-size:12px;font-family:'Heiti SC';fill:#30b4de;fill-opacity:1"
         d="m 35.79025,30.155 h -0.828 v -1.14 q -0.984,1.308 -2.388,1.308 -0.72,0 -1.296,-0.384 -0.576,-0.396 -0.816,-1.02 -0.24,-0.636 -0.24,-1.86 v -3.276 h 0.816 v 3.036 q 0,1.116 0.096,1.512 0.108,0.396 0.312,0.672 0.216,0.276 0.54,0.42 0.324,0.144 0.78,0.144 0.468,0 0.912,-0.228 0.444,-0.228 0.756,-0.636 0.312,-0.408 0.42,-0.84 0.108,-0.432 0.108,-1.74 v -2.34 h 0.828 z" />
    </g>
    <g
       id="text65"
       style="font-size:12px;font-family:'Heiti SC';fill:#30b4de;fill-opacity:1"
       aria-label="d">
      <path
         id="path156"
         style="font-size:12px;font-family:'Heiti SC';fill:#30b4de;fill-opacity:1"
         d="m 44.99075,21.323 v 8.832 h -0.804 v -1.092 q -1.092,1.308 -2.508,1.308 -1.404,0 -2.364,-0.996 -0.96,-0.996 -0.96,-2.388 0,-1.392 0.972,-2.376 0.972,-0.996 2.328,-0.996 1.56,0 2.532,1.332 v -3.624 z m -0.756,5.688 q 0,-1.092 -0.72,-1.848 -0.72,-0.756 -1.8,-0.756 -1.08,0 -1.812,0.78 -0.72,0.768 -0.72,1.824 0,1.044 0.744,1.824 0.744,0.78 1.752,0.78 1.02,0 1.788,-0.732 0.768,-0.744 0.768,-1.872 z" />
    </g>
    <g
       id="text67"
       style="font-size:12px;font-family:'Heiti SC';fill:#30b4de;fill-opacity:1"
       aria-label=".">
      <path
         id="path159"
         style="font-size:12px;font-family:'Heiti SC';fill:#30b4de;fill-opacity:1"
         d="m 47.68575,29.591 q 0,-0.3 0.216,-0.504 0.216,-0.216 0.504,-0.216 0.3,0 0.504,0.216 0.216,0.204 0.216,0.516 0,0.3 -0.216,0.516 -0.204,0.204 -0.504,0.204 -0.288,0 -0.504,-0.216 -0.216,-0.216 -0.216,-0.516 z" />
    </g>
    <g
       id="text69"
       style="font-size:12px;font-family:'Heiti SC';fill:#30b4de;fill-opacity:1"
       aria-label="c">
      <path
         id="path162"
         style="font-size:12px;font-family:'Heiti SC';fill:#30b4de;fill-opacity:1"
         d="m 58.29625,25.103 -0.648,0.408 q -0.84,-1.116 -2.304,-1.116 -1.152,0 -1.932,0.744 -0.78,0.732 -0.78,1.824 0,1.092 0.768,1.872 0.768,0.78 1.944,0.78 1.404,0 2.304,-1.116 l 0.648,0.432 q -0.48,0.696 -1.296,1.068 -0.804,0.372 -1.74,0.372 -1.476,0 -2.472,-0.972 -0.984,-0.972 -0.984,-2.376 0,-1.404 0.996,-2.4 1.008,-1.008 2.58,-1.008 0.924,0 1.704,0.396 0.792,0.396 1.212,1.092 z" />
    </g>
    <g
       id="text71"
       style="font-size:12px;font-family:'Heiti SC';fill:#30b4de;fill-opacity:1"
       aria-label="o">
      <path
         id="path165"
         style="font-size:12px;font-family:'Heiti SC';fill:#30b4de;fill-opacity:1"
         d="m 60.64325,27.011 q 0,-1.404 0.96,-2.4 0.972,-0.996 2.352,-0.996 1.392,0 2.352,0.996 0.972,0.996 0.972,2.388 0,1.392 -0.96,2.388 -0.948,0.984 -2.352,0.984 -1.404,0 -2.364,-0.984 -0.96,-0.996 -0.96,-2.376 z m 5.808,0.012 q 0,-1.056 -0.744,-1.824 -0.732,-0.78 -1.752,-0.78 -1.008,0 -1.74,0.78 -0.732,0.768 -0.732,1.836 0,1.068 0.708,1.812 0.708,0.744 1.752,0.744 1.056,0 1.776,-0.744 0.732,-0.756 0.732,-1.824 z" />
    </g>
    <g
       id="text73"
       style="font-size:12px;font-family:'Heiti SC';fill:#30b4de;fill-opacity:1"
       aria-label="m">
      <path
         id="path168"
         style="font-size:12px;font-family:'Heiti SC';fill:#30b4de;fill-opacity:1"
         d="m 69.81825,23.783 h 0.816 v 1.104 q 0.852,-1.272 2.184,-1.272 0.708,0 1.26,0.408 0.564,0.396 0.756,1.128 0.396,-0.744 1.008,-1.14 0.612,-0.396 1.404,-0.396 0.804,0 1.452,0.624 0.648,0.612 0.648,2.436 v 3.48 h -0.84 v -3.48 q 0,-0.876 -0.108,-1.284 -0.108,-0.42 -0.468,-0.696 -0.36,-0.288 -0.96,-0.288 -0.588,0 -1.104,0.396 -0.516,0.396 -0.708,1.008 -0.192,0.612 -0.192,1.848 v 2.496 h -0.804 v -3.264 q 0,-1.02 -0.108,-1.452 -0.108,-0.444 -0.48,-0.732 -0.372,-0.3 -0.912,-0.3 -0.54,0 -1.02,0.324 -0.468,0.312 -0.744,0.864 -0.264,0.552 -0.264,1.86 v 2.7 h -0.816 z" />
    </g>
  </g>
</svg>
